<?xml version="1.0" encoding="UTF-8" standalone="no"?>
<svg
   xmlns:dc="http://purl.org/dc/elements/1.1/"
   xmlns:cc="http://creativecommons.org/ns#"
   xmlns:rdf="http://www.w3.org/1999/02/22-rdf-syntax-ns#"
   xmlns:svg="http://www.w3.org/2000/svg"
   xmlns="http://www.w3.org/2000/svg"
   id="svg5088"
   version="1.1"
   viewBox="0 0 16.597943 16.513099"
   height="16.513102mm"
   width="16.597944mm">
  <defs
     id="defs5082">
    <clipPath
       id="clipPath26"
       clipPathUnits="userSpaceOnUse">
      <path
         id="path24"
         d="m 46.87,357.72 h 57.62 v -61.3 H 46.87 Z" />
    </clipPath>
    <clipPath
       id="clipPath68"
       clipPathUnits="userSpaceOnUse">
      <path
         id="path66"
         d="m 134.76,353.97 h 53.44 v -53.8 h -53.44 z" />
    </clipPath>
    <clipPath
       id="clipPath92"
       clipPathUnits="userSpaceOnUse">
      <path
         id="path90"
         d="m 223.45,354.72 h 47.18 v -55.29 h -47.18 z" />
    </clipPath>
    <clipPath
       id="clipPath340"
       clipPathUnits="userSpaceOnUse">
      <path
         id="path338"
         d="m 297.63,333.83 h 56.08 V 295.5 h -56.08 z" />
    </clipPath>
    <clipPath
       id="clipPath220"
       clipPathUnits="userSpaceOnUse">
      <path
         id="path218"
         d="M 378.05,353.71 H 427.8 V 300.43 H 378.05 Z" />
    </clipPath>
    <clipPath
       id="clipPath1224"
       clipPathUnits="userSpaceOnUse">
      <path
         id="path1222"
         d="m 450.12,353.2 h 52.25 v -52.25 h -52.25 z" />
    </clipPath>
    <clipPath
       id="clipPath904"
       clipPathUnits="userSpaceOnUse">
      <path
         id="path902"
         d="m 520.935,347.63 h 55.64 v -41.12 h -55.64 z" />
    </clipPath>
    <clipPath
       id="clipPath1512"
       clipPathUnits="userSpaceOnUse">
      <path
         id="path1510"
         d="m 590.789,353.968 h 54.478 v -53.795 h -54.478 z" />
    </clipPath>
    <clipPath
       id="clipPath384"
       clipPathUnits="userSpaceOnUse">
      <path
         id="path382"
         d="M 46.97,277.28 H 104.4 V 231.61 H 46.97 Z" />
    </clipPath>
    <clipPath
       id="clipPath312"
       clipPathUnits="userSpaceOnUse">
      <path
         id="path310"
         d="m 127.4,282.06 h 68.16 V 240.85 H 127.4 Z" />
    </clipPath>
    <clipPath
       id="clipPath544"
       clipPathUnits="userSpaceOnUse">
      <path
         id="path542"
         d="m 208.18,291.795 h 77.715 V 231.114 H 208.18 Z" />
    </clipPath>
    <clipPath
       id="clipPath144"
       clipPathUnits="userSpaceOnUse">
      <path
         id="path142"
         d="m 309.62,285.63 h 32.112 V 237.28 H 309.62 Z" />
    </clipPath>
    <clipPath
       id="clipPath988"
       clipPathUnits="userSpaceOnUse">
      <path
         id="path986"
         d="m 381.1,282.73 h 43.66 V 240.17 H 381.1 Z" />
    </clipPath>
    <clipPath
       id="clipPath790"
       clipPathUnits="userSpaceOnUse">
      <path
         id="path788"
         d="m 453.3,278.98 h 46.82 V 242.6 H 453.3 Z" />
    </clipPath>
    <clipPath
       id="clipPath1144"
       clipPathUnits="userSpaceOnUse">
      <path
         id="path1142"
         d="m 523.77,273.9 h 51.05 v -26.22 h -51.05 z" />
    </clipPath>
    <clipPath
       id="clipPath1390"
       clipPathUnits="userSpaceOnUse">
      <path
         id="path1388"
         d="m 595.56,285.6 h 44.93 v -45.9 h -44.93 z" />
    </clipPath>
    <clipPath
       id="clipPath1052"
       clipPathUnits="userSpaceOnUse">
      <path
         id="path1050"
         d="M 54.2225,216.55 H 97.1436 V 173.66 H 54.2225 Z" />
    </clipPath>
    <clipPath
       id="clipPath762"
       clipPathUnits="userSpaceOnUse">
      <path
         id="path760"
         d="M 133.67,214.23 H 189.3 V 175.98 H 133.67 Z" />
    </clipPath>
    <clipPath
       id="clipPath276"
       clipPathUnits="userSpaceOnUse">
      <path
         id="path274"
         d="m 230.14,218.955 h 33.8 V 165.25 h -33.8 z" />
    </clipPath>
    <clipPath
       id="clipPath628"
       clipPathUnits="userSpaceOnUse">
      <path
         id="path626"
         d="m 297.63,227.63 h 56.09 v -71.05 h -56.09 z" />
    </clipPath>
    <clipPath
       id="clipPath420"
       clipPathUnits="userSpaceOnUse">
      <path
         id="path418"
         d="m 378.62,220.24 h 48.61 v -54.37 h -48.61 z" />
    </clipPath>
    <clipPath
       id="clipPath1072"
       clipPathUnits="userSpaceOnUse">
      <path
         id="path1070"
         d="m 447.51,212.1 h 58.4 v -44.61 h -58.4 z" />
    </clipPath>
    <clipPath
       id="clipPath1188"
       clipPathUnits="userSpaceOnUse">
      <path
         id="path1186"
         d="m 533.95,216.9 h 30.68 v -46.91 h -30.68 z" />
    </clipPath>
    <clipPath
       id="clipPath1478"
       clipPathUnits="userSpaceOnUse">
      <path
         id="path1476"
         d="M 593.15,205.25 H 642.9 V 175.81 H 593.15 Z" />
    </clipPath>
    <clipPath
       id="clipPath696"
       clipPathUnits="userSpaceOnUse">
      <path
         id="path694"
         d="m 41.9,158.92 h 63.56 V 108.56 H 41.9 Z" />
    </clipPath>
    <clipPath
       id="clipPath834"
       clipPathUnits="userSpaceOnUse">
      <path
         id="path832"
         d="m 128.24,150.16 h 66.48 v -41.6 h -66.48 z" />
    </clipPath>
    <clipPath
       id="clipPath870"
       clipPathUnits="userSpaceOnUse">
      <path
         id="path868"
         d="m 222.85,145.194 h 48.38 V 108.56 h -48.38 z" />
    </clipPath>
    <clipPath
       id="clipPath946"
       clipPathUnits="userSpaceOnUse">
      <path
         id="path944"
         d="M 303.15,145.89 H 348.2 V 108.56 H 303.15 Z" />
    </clipPath>
    <clipPath
       id="clipPath1016"
       clipPathUnits="userSpaceOnUse">
      <path
         id="path1014"
         d="M 389.46,153.23 H 416.4 V 108.56 H 389.46 Z" />
    </clipPath>
    <clipPath
       id="clipPath1108"
       clipPathUnits="userSpaceOnUse">
      <path
         id="path1106"
         d="m 456.76,146.16 h 39.89 v -37.63 h -39.89 z" />
    </clipPath>
    <clipPath
       id="clipPath1354"
       clipPathUnits="userSpaceOnUse">
      <path
         id="path1352"
         d="m 530.46,152.62 h 37.66 v -37.38 h -37.66 z" />
    </clipPath>
    <clipPath
       id="clipPath1560"
       clipPathUnits="userSpaceOnUse">
      <path
         id="path1558"
         d="m 589.99,163.3 h 56.08 v -56.08 h -56.08 z" />
    </clipPath>
    <clipPath
       id="clipPath1708"
       clipPathUnits="userSpaceOnUse">
      <path
         id="path1706"
         d="m 59.82,92.37 h 35.1 v -46.8 h -35.1 z" />
    </clipPath>
    <clipPath
       id="clipPath1790"
       clipPathUnits="userSpaceOnUse">
      <path
         id="path1788"
         d="m 128.43,93.72 h 59.54 V 44.23 h -59.54 z" />
    </clipPath>
    <clipPath
       id="clipPath1906"
       clipPathUnits="userSpaceOnUse">
      <path
         id="path1904"
         d="m 221.48,89.86 h 41.77 V 48.08 h -41.77 z" />
    </clipPath>
    <clipPath
       id="clipPath1978"
       clipPathUnits="userSpaceOnUse">
      <path
         id="path1976"
         d="m 296.76,84.91 h 51.79 V 53.03 h -51.79 z" />
    </clipPath>
    <clipPath
       id="clipPath2102"
       clipPathUnits="userSpaceOnUse">
      <path
         id="path2100"
         d="m 382.06,94.1 h 29.53 V 43.85 h -29.53 z" />
    </clipPath>
    <clipPath
       id="clipPath2160"
       clipPathUnits="userSpaceOnUse">
      <path
         id="path2158"
         d="m 445.1,86.8 h 36.801 V 51.1522 H 445.1 Z" />
    </clipPath>
    <clipPath
       id="clipPath2188"
       clipPathUnits="userSpaceOnUse">
      <path
         id="path2186"
         d="m 515.405,91.33 h 49.456 V 46.62 h -49.456 z" />
    </clipPath>
    <clipPath
       id="clipPath2018"
       clipPathUnits="userSpaceOnUse">
      <path
         id="path2016"
         d="m 598.34,88.54 h 39.38 V 49.4 h -39.38 z" />
    </clipPath>
  </defs>
  <metadata
     id="metadata5085">
    <rdf:RDF>
      <cc:Work
         rdf:about="">
        <dc:format>image/svg+xml</dc:format>
        <dc:type
           rdf:resource="http://purl.org/dc/dcmitype/StillImage" />
        <dc:title></dc:title>
      </cc:Work>
    </rdf:RDF>
  </metadata>
  <g
     transform="translate(-126.35081,-91.190093)"
     id="layer1">
    <g
       id="g11460"
       transform="matrix(0.35277777,0,0,-0.35277777,-83.37736,123.77792)">
      <g
         id="g2012">
        <g
           id="g2014" />
        <g
           id="g2062">
          <g
             clip-path="url(#clipPath2018)"
             id="g2060">
            <g
               transform="translate(635.9697,71.5498)"
               id="g2022">
              <path
                 d="m 0,0 c 0,-0.479 0.391,-0.87 0.87,-0.87 0.481,0 0.88,0.391 0.88,0.87 v -18.6 c 0,-1.96 -1.59,-3.549 -3.55,-3.549 h -32.29 c -1.95,0 -3.54,1.589 -3.54,3.549 v 14.23 c 0,-0.489 0.391,-0.88 0.87,-0.88 0.49,0 0.88,0.391 0.88,0.88 0,0.98 0.8,1.79 1.8,1.79 l 4.16,-0.02 v -11.11 c 0,-2.14 1.731,-3.87 3.86,-3.87 h 19.451 c 2.13,0 3.87,1.73 3.87,3.87 V 1.8 H -1.8 C -0.81,1.8 0,0.99 0,0"
                 style="fill:#6c9814;fill-opacity:1;fill-rule:nonzero;stroke:none"
                 id="path2020" />
            </g>
            <g
               transform="translate(637.7197,74.2998)"
               id="g2026">
              <path
                 d="M 0,0 V -2.75 C 0,-0.79 -1.59,0.8 -3.55,0.8 H -4.489 V 3.83 H -3.84 C -1.72,3.83 0,2.11 0,0"
                 style="fill:#00607f;fill-opacity:1;fill-rule:nonzero;stroke:none"
                 id="path2024" />
            </g>
            <g
               transform="translate(634.1699,75.0996)"
               id="g2030">
              <path
                 d="m 0,0 c 1.96,0 3.55,-1.59 3.55,-3.55 0,-0.479 -0.4,-0.87 -0.88,-0.87 -0.48,0 -0.87,0.391 -0.87,0.87 0,0.99 -0.81,1.8 -1.8,1.8 H -0.939 V 0 Z"
                 style="fill:#6c9814;fill-opacity:1;fill-rule:nonzero;stroke:none"
                 id="path2028" />
            </g>
            <g
               transform="translate(633.2305,73.3496)"
               id="g2034">
              <path
                 d="m 0,0 v -15.51 c 0,-2.139 -1.74,-3.87 -3.87,-3.87 h -19.45 c -2.13,0 -3.861,1.731 -3.861,3.87 v 11.111 l 11.92,-0.04 c 0.771,0 1.531,0.259 2.141,0.729 l 4.349,3.341 C -8.461,-0.13 -8.07,0 -7.681,0 Z"
                 style="fill:#6c9814;fill-opacity:1;fill-rule:nonzero;stroke:none"
                 id="path2032" />
            </g>
            <g
               transform="translate(606.0498,78.1299)"
               id="g2038">
              <path
                 d="M 0,0 H 27.181 V -3.03 H 19.5 c -0.78,0 -1.54,-0.26 -2.149,-0.74 L 13,-7.1 C 12.69,-7.34 12.311,-7.47 11.9,-7.47 L 0,-7.43 Z"
                 style="fill:#ffbb00;fill-opacity:1;fill-rule:nonzero;stroke:none"
                 id="path2036" />
            </g>
            <g
               transform="translate(624.6602,87.6699)"
               id="g2042">
              <path
                 d="M 0,0 C 0,0.35 0.21,0.67 0.54,0.811 0.649,0.85 0.76,0.87 0.87,0.87 1.1,0.87 1.32,0.79 1.49,0.62 L 8.31,-6.2 C 8.479,-6.37 8.57,-6.59 8.57,-6.82 8.57,-6.939 8.55,-7.05 8.5,-7.16 8.37,-7.479 8.05,-7.7 7.689,-7.7 H 0.87 C 0.39,-7.7 0,-7.3 0,-6.82 Z"
                 style="fill:#ff9e00;fill-opacity:1;fill-rule:nonzero;stroke:none"
                 id="path2040" />
            </g>
            <g
               transform="translate(625.5303,79.9697)"
               id="g2046">
              <path
                 d="M 0,0 H 6.819 C 7.18,0 7.5,0.221 7.63,0.54 7.68,0.65 7.7,0.761 7.7,0.88 v -2.72 h -27.18 v 6.55 c 0,2.13 1.73,3.86 3.86,3.86 L 0,8.57 C -0.11,8.57 -0.221,8.55 -0.33,8.511 -0.66,8.37 -0.87,8.05 -0.87,7.7 V 0.88 C -0.87,0.4 -0.48,0 0,0"
                 style="fill:#ffbb00;fill-opacity:1;fill-rule:nonzero;stroke:none"
                 id="path2044" />
            </g>
            <g
               transform="translate(625.5498,73.3496)"
               id="g2050">
              <path
                 d="M 0,0 C -0.39,0 -0.78,-0.13 -1.09,-0.369 L -5.439,-3.71 C -6.05,-4.18 -6.81,-4.439 -7.58,-4.439 l -11.92,0.04 v 1.75 l 11.9,-0.04 c 0.411,0 0.79,0.129 1.1,0.37 l 4.351,3.33 C -1.54,1.49 -0.78,1.75 0,1.75 H 7.681 V 0 Z"
                 style="fill:#6c9814;fill-opacity:1;fill-rule:nonzero;stroke:none"
                 id="path2048" />
            </g>
            <g
               transform="translate(606.0498,78.1299)"
               id="g2054">
              <path
                 d="m 0,0 v -7.43 l -4.17,0.02 c -1.95,0 -3.54,-1.59 -3.54,-3.54 v 7.12 c 0,2.11 1.72,3.83 3.84,3.83 z"
                 style="fill:#00607f;fill-opacity:1;fill-rule:nonzero;stroke:none"
                 id="path2052" />
            </g>
            <g
               transform="translate(601.8799,70.7197)"
               id="g2058">
              <path
                 d="m 0,0 4.17,-0.02 v -1.75 l -4.16,0.02 c -1,0 -1.8,-0.81 -1.8,-1.79 0,-0.489 -0.39,-0.88 -0.88,-0.88 -0.479,0 -0.87,0.391 -0.87,0.88 C -3.54,-1.59 -1.95,0 0,0"
                 style="fill:#6c9814;fill-opacity:1;fill-rule:nonzero;stroke:none"
                 id="path2056" />
            </g>
          </g>
        </g>
      </g>
      <g
         id="g2064"
         transform="translate(633.2305,78.1299)">
        <path
           d="m 0,0 h 0.649 c 2.121,0 3.84,-1.72 3.84,-3.83 v -2.75"
           style="fill:none;stroke:#141414;stroke-width:2;stroke-linecap:round;stroke-linejoin:round;stroke-miterlimit:10;stroke-dasharray:none;stroke-opacity:1"
           id="path2066" />
      </g>
      <g
         id="g2068"
         transform="translate(598.3398,67.1797)">
        <path
           d="m 0,0 v 7.12 c 0,2.11 1.72,3.83 3.84,3.83 h 3.87"
           style="fill:none;stroke:#141414;stroke-width:2;stroke-linecap:round;stroke-linejoin:round;stroke-miterlimit:10;stroke-dasharray:none;stroke-opacity:1"
           id="path2070" />
      </g>
      <g
         id="g2072"
         transform="translate(633.2305,80.8496)">
        <path
           d="M 0,0 V -2.72 -5.75"
           style="fill:none;stroke:#141414;stroke-width:2;stroke-linecap:round;stroke-linejoin:round;stroke-miterlimit:10;stroke-dasharray:none;stroke-opacity:1"
           id="path2074" />
      </g>
      <g
         id="g2076"
         transform="translate(606.0498,70.7002)">
        <path
           d="m 0,0 v 7.43 6.549 c 0,2.13 1.73,3.861 3.86,3.861 h 15.62"
           style="fill:none;stroke:#141414;stroke-width:2;stroke-linecap:round;stroke-linejoin:round;stroke-miterlimit:10;stroke-dasharray:none;stroke-opacity:1"
           id="path2078" />
      </g>
      <g
         id="g2080"
         transform="translate(633.2305,80.8496)">
        <path
           d="M 0,0 C 0,-0.119 -0.021,-0.229 -0.07,-0.34 -0.2,-0.659 -0.521,-0.88 -0.881,-0.88 H -7.7 c -0.481,0 -0.87,0.401 -0.87,0.88 v 6.82 c 0,0.35 0.21,0.67 0.54,0.811 0.109,0.039 0.219,0.059 0.33,0.059 0.229,0 0.45,-0.08 0.62,-0.25 L -0.261,0.62 C -0.091,0.45 0,0.23 0,0 Z"
           style="fill:none;stroke:#141414;stroke-width:2;stroke-linecap:round;stroke-linejoin:round;stroke-miterlimit:10;stroke-dasharray:none;stroke-opacity:1"
           id="path2082" />
      </g>
      <g
         id="g2084"
         transform="translate(637.7197,71.5498)">
        <path
           d="m 0,0 v -18.6 c 0,-1.96 -1.59,-3.549 -3.55,-3.549 h -32.29 c -1.95,0 -3.54,1.589 -3.54,3.549 v 14.23 c 0,1.95 1.59,3.54 3.54,3.54 l 4.17,-0.02 11.9,-0.04 c 0.411,0 0.791,0.13 1.1,0.37 l 4.351,3.331 c 0.609,0.479 1.369,0.739 2.149,0.739 h 7.681 0.939 C -1.59,3.55 0,1.96 0,0 Z"
           style="fill:none;stroke:#141414;stroke-width:2;stroke-linecap:round;stroke-linejoin:round;stroke-miterlimit:10;stroke-dasharray:none;stroke-opacity:1"
           id="path2086" />
      </g>
      <g
         id="g2088"
         transform="translate(609.7305,82.6602)">
        <path
           d="M 0,0 H 11.699"
           style="fill:none;stroke:#141414;stroke-width:2;stroke-linecap:round;stroke-linejoin:round;stroke-miterlimit:10;stroke-dasharray:none;stroke-opacity:1"
           id="path2090" />
      </g>
      <g
         id="g2092"
         transform="translate(609.7305,76.6504)">
        <path
           d="M 0,0 H 11.699"
           style="fill:none;stroke:#141414;stroke-width:2;stroke-linecap:round;stroke-linejoin:round;stroke-miterlimit:10;stroke-dasharray:none;stroke-opacity:1"
           id="path2094" />
      </g>
    </g>
  </g>
</svg>
