<svg id="filled_outline" height="512" viewBox="0 0 512 512" width="512" xmlns="http://www.w3.org/2000/svg" data-name="filled outline"><path d="m160 488-72-.00067a48 48 0 0 1 -47.99995-48v-55.99933h119.99995z" fill="#4976f2"/><path d="m88 488 336-.00067a48 48 0 0 0 48-48v-399.99933a16 16 0 0 0 -16-16h-304a16 16 0 0 0 -16 16v400.00005a48 48 0 0 1 -47.99995 48z" fill="#548aff"/><path d="m328 64h40l-16 24 8 16-40 32 8-32-16-16z" fill="#ffc431"/><path d="m296 112c0-13.25483-24-48-24-48s-24 34.74517-24 48a24 24 0 0 0 48 0z" fill="#8be0e8"/><path d="m319.14014 106.4541-6.90137 27.60547a8.00017 8.00017 0 0 0 12.75879 8.1875l40-32a7.99985 7.99985 0 0 0 2.15771-9.82471l-5.92382-11.84765 13.4248-20.13721a8 8 0 0 0 -6.65625-12.4375h-40a7.99943 7.99943 0 0 0 -6.65625 3.5625l-16 24a7.99884 7.99884 0 0 0 .99951 10.09424zm13.14111-34.4541h20.77051l-7.708 11.5625a7.99823 7.99823 0 0 0 -.499 8.01514l5.10742 10.21533-16.44287 13.15478 2.252-9.00732a7.99893 7.99893 0 0 0 -2.10449-7.59717l-11.36239-11.36279z"/><path d="m272 144a32.036 32.036 0 0 0 32-32c0-4.48047-1.356-12.77393-13.08008-32.98486-6.08838-10.49512-12.08545-19.19678-12.3374-19.562a8.00053 8.00053 0 0 0 -13.165 0c-.252.36524-6.249 9.0669-12.3374 19.562-11.72412 20.21093-13.08012 28.50439-13.08012 32.98486a32.036 32.036 0 0 0 32 32zm0-65.4292c8.53516 13.6362 16 28.13379 16 33.4292a16 16 0 0 1 -32 0c0-5.29541 7.46484-19.793 16-33.4292z"/><path d="m176 184h40v16h-40z"/><path d="m232 184h56v16h-56z"/><path d="m176 216h80v16h-80z"/><path d="m392 184h40v16h-40z"/><path d="m176 256h88v16h-88z"/><path d="m280 256h48v16h-48z"/><path d="m176 288h48v16h-48z"/><path d="m392 408h40v16h-40z"/><path d="m312 408h64v16h-64z"/><path d="m352 440h80v16h-80z"/><path d="m392 256h40v16h-40z"/><path d="m176 328h40v16h-40z"/><path d="m232 328h96v16h-96z"/><path d="m176 360h104v16h-104z"/><path d="m392 328h40v16h-40z"/><path d="m88 496 336-.00049a56.06353 56.06353 0 0 0 56-56v-399.99951a24.0275 24.0275 0 0 0 -24-24h-304a24.0275 24.0275 0 0 0 -24 24v399.99951a40 40 0 0 1 -80 0v-47.99951h64v-16h-72a7.99977 7.99977 0 0 0 -8 8v55.99951a56.06427 56.06427 0 0 0 56 56.00049zm56-56.00049v-399.99951a8.00917 8.00917 0 0 1 8-8h304a8.00917 8.00917 0 0 1 8 8v399.99951a40.04521 40.04521 0 0 1 -40 40l-296.84619.00049a55.83348 55.83348 0 0 0 16.84619-40.00049z"/></svg>