<svg xmlns="http://www.w3.org/2000/svg" viewBox="78.97 88.88 142.06 122.24"><defs><style>.a{fill:#00c49e;}</style></defs><path class="a" d="M150.05,148.55a50,50,0,0,0-34.58,13.81,6.07,6.07,0,0,0-.21,8.56,6.05,6.05,0,0,0,8.56.21,38.08,38.08,0,0,1,52.38-.07,6.05,6.05,0,0,0,4.15,1.64,6.13,6.13,0,0,0,4.41-1.89,6.08,6.08,0,0,0-.25-8.56A50,50,0,0,0,150.05,148.55Z"/><path class="a" d="M150.08,118.08a79.58,79.58,0,0,0-55.07,22,6.05,6.05,0,1,0,8.34,8.77,67.85,67.85,0,0,1,93.31-.15,6,6,0,0,0,4.15,1.65,6.13,6.13,0,0,0,4.41-1.89,6.05,6.05,0,0,0-.25-8.56A79.62,79.62,0,0,0,150.08,118.08Z"/><path class="a" d="M219.11,116.31a100.51,100.51,0,0,0-138.24.22,6,6,0,0,0-.21,8.56,6.05,6.05,0,0,0,8.56.21,88.39,88.39,0,0,1,121.58-.19,6,6,0,0,0,4.15,1.65,6.09,6.09,0,0,0,4.4-1.89,6,6,0,0,0-.24-8.56Z"/><path class="a" d="M150,176.7a17.21,17.21,0,1,0,17.21,17.22A17.23,17.23,0,0,0,150,176.7ZM150,202a8.1,8.1,0,1,1,8.1-8.09A8.1,8.1,0,0,1,150,202Z"/></svg>