<svg xmlns="http://www.w3.org/2000/svg" viewBox="100.28 70.23 99.44 160.57"><defs><style>.a{fill:#06a9ce;}</style></defs><path class="a" d="M150,82.11a1.39,1.39,0,1,0-1.45-1.4A1.43,1.43,0,0,0,150,82.11Z"/><path class="a" d="M144.57,87.71h10.86a1.39,1.39,0,1,0,0-2.77H144.57a1.39,1.39,0,1,0,0,2.77Z"/><path class="a" d="M140.07,87.4a1.08,1.08,0,1,0,0-2.15,1.08,1.08,0,1,0,0,2.15Z"/><path class="a" d="M150,206.28a8.3,8.3,0,1,0,8.66,8.3A8.49,8.49,0,0,0,150,206.28Zm0,13.9a5.61,5.61,0,1,1,5.85-5.6A5.73,5.73,0,0,1,150,220.18Z"/><path class="a" d="M185.66,92.7H114.47a2.09,2.09,0,0,0-2.09,2.09V201a2.09,2.09,0,0,0,2.09,2.1h71.19a2.1,2.1,0,0,0,2.09-2.1V94.79A2.1,2.1,0,0,0,185.66,92.7Zm-2.09,4.19v102h-67v-102Z"/><path class="a" d="M180.85,70.23H119.14a18.88,18.88,0,0,0-18.86,18.86V211.94a18.88,18.88,0,0,0,18.86,18.86h61.71a18.89,18.89,0,0,0,18.87-18.86V89.09A18.89,18.89,0,0,0,180.85,70.23Zm0,154.7H119.14a13,13,0,0,1-13-13V89.09a13,13,0,0,1,13-13h61.71a13,13,0,0,1,13,13V211.94A13,13,0,0,1,180.85,224.93Z"/></svg>