<svg xmlns="http://www.w3.org/2000/svg" xmlns:xlink="http://www.w3.org/1999/xlink" xml:space="preserve" style="shape-rendering:geometricPrecision; text-rendering:geometricPrecision; image-rendering:optimizeQuality; fill-rule:evenodd; clip-rule:evenodd" viewBox="5878 2584 9244.03 4064">
 <defs>
  <style type="text/css">
   <![CDATA[
    .fil1 {fill:#FEFEFE}
    .fil0 {fill:#EE4E2C}
    .fil2 {fill:#EE4E2C;fill-rule:nonzero}
   ]]>
  </style>
 </defs>
 <g id="Layer_x0020_1">
  <metadata id="CorelCorpID_0Corel-Layer"/>
  <path class="fil0" d="M6325 3236l2980 0c198,0 360,162 360,360l0 2085c0,198 -162,360 -360,360l-3067 0c-198,0 -360,-162 -360,-360l0 -2576c0,-94 77,-159 170,-170l2748 -351c94,0 170,77 170,170l0 292 -2813 0c0,122 37,189 172,189zm1671 2285l0 0c-251,48 -573,-35 -748,-224 -79,-85 48,-213 128,-128 118,127 328,186 499,182 218,-5 413,-204 289,-426 -172,-307 -595,-221 -813,-463 -176,-195 -93,-502 114,-638 216,-142 588,-136 765,67 76,87 -51,215 -128,128 -143,-164 -481,-142 -610,27 -184,241 91,371 283,429 264,80 557,226 605,529 38,244 -150,470 -384,516z"/>
  <path class="fil1" d="M7996 5521l0 0c-251,48 -573,-35 -748,-224 -79,-85 48,-213 128,-128 118,127 328,186 499,182 218,-5 413,-204 289,-426 -172,-307 -595,-221 -813,-463 -176,-195 -93,-502 114,-638 216,-142 588,-136 765,67 76,87 -51,216 -128,128 -143,-164 -481,-142 -610,27 -184,241 91,371 283,429 264,80 557,226 605,529 38,244 -150,470 -384,516z"/>
  <path class="fil2" d="M13129 3108c-107,0 -202,45 -268,117l0 -83c0,-75 -121,-75 -121,0l0 984c0,75 121,76 121,0l0 -438c66,72 162,117 268,117 198,0 359,-156 359,-348 0,-192 -161,-348 -359,-348zm0 570l0 0c-127,0 -229,-100 -229,-222 0,-110 83,-202 192,-220 0,0 1,0 2,0 11,-2 23,-3 35,-3 93,0 174,55 210,133 0,0 0,1 0,1 12,27 19,57 19,89 0,123 -103,222 -229,222zm-891 126c-198,0 -359,-156 -359,-348 0,-192 161,-348 359,-348 198,0 359,156 359,348 0,192 -161,348 -359,348zm0 -570l0 0c-126,0 -229,100 -229,222 0,123 103,222 229,222 126,0 229,-100 229,-222 0,-123 -103,-222 -229,-222zm2884 215c-3,-160 -87,-305 -262,-337 -151,-28 -327,49 -391,186 -67,142 -39,337 93,436 142,107 364,74 510,-5 68,-37 7,-138 -61,-101 -92,50 -213,75 -317,41 -78,-25 -121,-90 -134,-163l502 0c32,0 61,-27 60,-59zm-558 -59l0 0c1,-4 2,-9 3,-13 29,-95 128,-151 228,-153 115,-3 179,74 199,166l-431 0zm-246 60c-3,-160 -87,-305 -262,-337 -151,-28 -327,49 -391,186 -67,142 -39,337 93,436 142,107 364,74 510,-5 68,-37 7,-138 -61,-101 -92,50 -213,75 -317,41 -78,-25 -121,-90 -134,-163l502 0c32,0 61,-27 60,-59zm-558 -59l0 0c1,-4 2,-9 3,-13 29,-95 128,-151 228,-153 115,-3 179,74 199,166l-431 0zm-2022 -54l0 407c0,77 -121,77 -121,0l0 -399c-4,-79 -71,-115 -74,-116 -86,-37 -242,-20 -335,98l0 417c0,77 -121,77 -121,0l0 -1045c0,-77 121,-76 121,0l0 469c148,-99 336,-88 425,-27 0,0 106,58 105,196zm-848 -590c-118,-130 -367,-134 -511,-43 -138,87 -194,284 -76,409 146,155 428,100 543,297 83,143 -47,270 -193,273 -114,2 -255,-36 -334,-117 -53,-55 -138,27 -85,82 117,121 332,175 499,144 156,-29 282,-175 256,-331 -32,-194 -228,-288 -404,-339 -128,-37 -312,-121 -189,-275 86,-109 312,-123 408,-17 51,56 136,-26 85,-82z"/>
  <path class="fil0" d="M14038 6648l-383 0 410 -775 -674 -1273 416 0 466 880 466 -880 383 0 -1084 2048zm-3821 -607l322 0 0 -587 433 0c449,0 814,-315 814,-704 0,-389 -364,-704 -814,-704l-755 0c0,665 0,1330 0,1996zm322 -909l0 -765 433 0c244,0 442,171 442,383 0,211 -198,383 -442,383l-433 0zm2451 -520l282 0 0 1417 -282 0 0 -159c-126,107 -289,172 -467,172 -398,0 -721,-323 -721,-721 0,-398 323,-721 721,-721 178,0 341,65 467,172l0 -159zm-467 291c230,0 417,187 417,417 0,230 -187,417 -417,417 -230,0 -417,-187 -417,-417 0,-230 187,-417 417,-417z"/>
 </g>
</svg>